<svg width="27" height="27" viewBox="0 0 27 27" fill="none" xmlns="http://www.w3.org/2000/svg">
<path d="M3.54269 23.9624C2.75079 23.9624 2.12561 23.3102 2.12561 22.5318V1.47267C2.12561 0.673219 2.77163 0 3.58437 0H22.6734C23.4653 0 24.1321 0.652181 24.1321 1.47267V22.5318C24.1321 23.3313 23.4861 23.9624 22.7151 23.9624H3.54269ZM4.20956 21.8586H22.0274V2.10381H4.20956V21.8586Z" fill="black"/>
<path d="M6.66867 26.4028C6.08516 26.4028 5.62669 25.94 5.62669 25.3509V23.1419C5.62669 22.5529 6.08516 22.09 6.66867 22.09C7.25217 22.09 7.71064 22.5529 7.71064 23.1419V25.3509C7.71064 25.94 7.25217 26.4028 6.66867 26.4028Z" fill="black"/>
<path d="M19.5684 26.4028C18.9849 26.4028 18.5264 25.94 18.5264 25.3509V23.1419C18.5264 22.5529 18.9849 22.09 19.5684 22.09C20.1519 22.09 20.6104 22.5529 20.6104 23.1419V25.3509C20.6104 25.94 20.1519 26.4028 19.5684 26.4028Z" fill="black"/>
<path d="M26.2995 9.2147H23.0694V11.3185H26.2995V9.2147Z" fill="black"/>
<path d="M3.16761 9.2147H0V11.3185H3.16761V9.2147Z" fill="black"/>
<path d="M22.5692 14.327H3.66773V16.4308H22.5692V14.327Z" fill="black"/>
<path d="M14.4418 14.6215H12.3578C12.3578 13.3171 11.3158 12.2652 10.0238 12.2652C8.73173 12.2652 7.68976 13.3171 7.68976 14.6215H5.60581C5.60581 12.16 7.58556 10.1614 10.0238 10.1614C12.462 10.1614 14.4418 12.16 14.4418 14.6215Z" fill="black"/>
<path d="M7.73152 19.9441C7.46061 19.9441 7.18969 19.839 7.00214 19.6286C6.79374 19.4392 6.68954 19.1657 6.68954 18.8922C6.68954 18.6187 6.79374 18.3452 7.00214 18.1559C7.27305 17.8614 7.75236 17.7772 8.12747 17.9245C8.25251 17.9666 8.37755 18.0507 8.46091 18.1559C8.6693 18.3452 8.7735 18.6187 8.7735 18.8922C8.7735 19.1657 8.6693 19.4392 8.46091 19.6286C8.27335 19.839 8.00243 19.9441 7.73152 19.9441Z" fill="black"/>
<path d="M18.5055 19.9441C18.2346 19.9441 17.9637 19.8389 17.7761 19.6496C17.5886 19.4392 17.4635 19.1657 17.4635 18.8922C17.4635 18.766 17.4635 18.6187 17.5469 18.4925C17.6094 18.3662 17.6719 18.24 17.7761 18.1559C18.0471 17.8613 18.5264 17.7561 18.9015 17.9244C19.0265 17.9665 19.1515 18.0507 19.2349 18.1559C19.4433 18.3452 19.5475 18.6187 19.5475 18.8922C19.5475 19.1657 19.4433 19.4392 19.2349 19.6496C19.1515 19.7337 19.0265 19.8179 18.9015 19.86C18.7764 19.9231 18.6514 19.9441 18.5055 19.9441Z" fill="black"/>
<path d="M16.0465 3.51338H10.1697V5.61719H16.0465V3.51338Z" fill="black"/>
<path d="M14.0876 0.967765H12.0036V4.56528H14.0876V0.967765Z" fill="black"/>
</svg>
