<svg width="150" height="150" viewBox="0 0 150 150" fill="none" xmlns="http://www.w3.org/2000/svg">
<g clip-path="url(#clip0_8_250)">
<path fill-rule="evenodd" clip-rule="evenodd" d="M150 75C150 116.42 116.42 150 75 150C33.5795 150 0 116.42 0 75C0 33.5795 33.5795 0 75 0C116.42 0 150 33.5795 150 75Z" fill="white"/>
<path fill-rule="evenodd" clip-rule="evenodd" d="M93.6136 21.8182C102.75 25.0227 110.932 30.5454 117.307 37.8068H132.886C124.705 25.0909 112.568 15.4091 98.3523 10.2614L93.6136 21.8182Z" fill="#EE2E27"/>
<path fill-rule="evenodd" clip-rule="evenodd" d="M46.1932 137.489L50.9318 125.932C58.4659 129.511 66.6818 131.352 75 131.318C81.5114 131.318 87.7841 130.193 93.6136 128.148L98.3523 139.704C90.8523 142.398 82.9773 143.795 75 143.761C65.0454 143.761 55.2273 141.614 46.1932 137.454" fill="#87AA3E"/>
<path fill-rule="evenodd" clip-rule="evenodd" d="M46.1932 137.489L50.9318 125.932C43.9773 122.625 37.7727 117.955 32.6932 112.193H17.1477C24.2386 123.205 34.3296 131.966 46.2273 137.489" fill="#428FBF"/>
<path d="M75 6.20459C82.9432 6.20459 90.8523 7.56823 98.3182 10.2614L93.5796 21.8182C87.75 19.7728 81.5114 18.6478 74.9659 18.6478C43.875 18.6819 18.6818 43.875 18.6818 75C18.6818 80.4887 19.4659 85.9432 21.0682 91.1932L38.8636 47.5228C40.7386 44.2841 44.4545 43.841 45.4432 43.7728H58.9773L84.5795 106.193H71.6932C68.1477 106.193 64.9432 104.011 63.6477 100.705L61.2614 94.841H37.9773L33.3409 106.193H13.7045C8.93182 96.8182 6.20454 86.216 6.20454 74.966C6.20454 37.0228 36.9886 6.20459 75 6.20459ZM49.6023 66.2728L44.1818 79.5341H54.9886L49.6023 66.2728Z" fill="#001231"/>
<path fill-rule="evenodd" clip-rule="evenodd" d="M136.295 43.7727H89.5909C88.5341 43.8409 84.2045 44.3863 82.5341 48.4773L78.1705 59.1477H92.1477L81.8864 83.9318L91.0568 106.261L110.523 59.1477H129.068C130.534 64.1932 131.352 69.5113 131.352 75.0341C131.352 99.6136 115.602 120.511 93.6136 128.216L98.3523 139.773C124.841 130.227 143.795 104.864 143.795 75.0341C143.795 63.7841 141.068 53.1818 136.295 43.8068" fill="#001231"/>
</g>
<defs>
<clipPath id="clip0_8_250">
<rect width="150" height="150" fill="white"/>
</clipPath>
</defs>
</svg>
